<?xml version="1.0" encoding="UTF-8" standalone="no"?>
<svg
   xmlns:dc="http://purl.org/dc/elements/1.1/"
   xmlns:cc="http://creativecommons.org/ns#"
   xmlns:rdf="http://www.w3.org/1999/02/22-rdf-syntax-ns#"
   xmlns:svg="http://www.w3.org/2000/svg"
   xmlns="http://www.w3.org/2000/svg"
   xmlns:sodipodi="http://sodipodi.sourceforge.net/DTD/sodipodi-0.dtd"
   xmlns:inkscape="http://www.inkscape.org/namespaces/inkscape"
   id="preview"
   style="display:inline; null"
   width="598"
   height="598"
   xunitlength="78"
   yunitlength="78"
   xmin="-1"
   xmax="5"
   ymin="-1"
   ymax="5"
   ox="118"
   oy="118"
   version="1.1"
   sodipodi:docname="gradient.svg"
   inkscape:version="0.92.2 (unknown)">
  <metadata
     id="metadata51">
    <rdf:RDF>
      <cc:Work
         rdf:about="">
        <dc:format>image/svg+xml</dc:format>
        <dc:type
           rdf:resource="http://purl.org/dc/dcmitype/StillImage" />
      </cc:Work>
    </rdf:RDF>
  </metadata>
  <sodipodi:namedview
     pagecolor="#ffffff"
     bordercolor="#666666"
     borderopacity="1"
     objecttolerance="10"
     gridtolerance="10"
     guidetolerance="10"
     inkscape:pageopacity="0"
     inkscape:pageshadow="2"
     inkscape:window-width="1920"
     inkscape:window-height="1016"
     id="namedview49"
     showgrid="false"
     inkscape:zoom="1.1162355"
     inkscape:cx="207.39501"
     inkscape:cy="307.52115"
     inkscape:window-x="0"
     inkscape:window-y="27"
     inkscape:window-maximized="1"
     inkscape:current-layer="preview"
     inkscape:measure-start="0,0"
     inkscape:measure-end="0,0" />
  <defs
     id="defs3">
    <link
       href="http://cdnjs.cloudflare.com/ajax/libs/KaTeX/0.2.0/katex.min.css"
       type="text/css"
       rel="stylesheet" />
  </defs>
  <path
     d=" M118,90 118,558 M196,90 196,558 M274,90 274,558 M352,90 352,558 M430,90 430,558 M508,90 508,558 M40,90 40,558 M40,480 508,480 M40,558 508,558 M40,402 508,402 M40,324 508,324 M40,246 508,246 M40,168 508,168 M40,90 508,90"
     stroke-width="1"
     stroke="grey"
     fill="none"
     id="path7" />
  <path
     d="M 522.3520000000001 472.824 L 543.8800000000001 480 L 522.3520000000001 487.176 L 525.94 480 z"
     stroke-width="1"
     stroke="black"
     fill="black"
     id="path9" />
  <path
     d="M 110.824 75.648 L 118 54.120000000000005 L 125.176 75.648 L 118 72.06 z"
     stroke-width="1"
     stroke="black"
     fill="black"
     id="path11" />
  <path
     d="M22.060000000000002,480 525.94,480 M118,72.06 118,575.94 M118,492 118,468 M196,492 196,468 M274,492 274,468 M352,492 352,468 M430,492 430,468 M508,492 508,468 M40,492 40,468 M130,480 106,480 M130,558 106,558 M130,402 106,402 M130,324 106,324 M130,246 106,246 M130,168 106,168 M130,90 106,90"
     stroke-width="2"
     stroke="black"
     fill="none"
     id="path13" />
  <text
     id="null"
     x="196"
     y="530"
     font-style=""
     font-family="KaTeX_Main"
     font-size="48"
     font-weight="normal"
     text-anchor="middle"
     fill="black"
     stroke-width="0px">1</text>
  <text
     id="text16"
     x="274"
     y="530"
     font-style=""
     font-family="KaTeX_Main"
     font-size="48"
     font-weight="normal"
     text-anchor="middle"
     fill="black"
     stroke-width="0px">2</text>
  <text
     id="text18"
     x="352"
     y="530"
     font-style=""
     font-family="KaTeX_Main"
     font-size="48"
     font-weight="normal"
     text-anchor="middle"
     fill="black"
     stroke-width="0px">3</text>
  <text
     id="text20"
     x="430"
     y="530"
     font-style=""
     font-family="KaTeX_Main"
     font-size="48"
     font-weight="normal"
     text-anchor="middle"
     fill="black"
     stroke-width="0px">4</text>
  <text
     id="text22"
     x="508"
     y="530"
     font-style=""
     font-family="KaTeX_Main"
     font-size="48"
     font-weight="normal"
     text-anchor="middle"
     fill="black"
     stroke-width="0px">5</text>
  <text
     id="text24"
     x="40"
     y="530"
     font-style=""
     font-family="KaTeX_Main"
     font-size="48"
     font-weight="normal"
     text-anchor="middle"
     fill="black"
     stroke-width="0px">-1</text>
  <text
     id="text26"
     x="100"
     y="418"
     font-style=""
     font-family="KaTeX_Main"
     font-size="48"
     font-weight="normal"
     text-anchor="end"
     fill="black"
     stroke-width="0px">1</text>
  <text
     id="text28"
     x="100"
     y="340"
     font-style=""
     font-family="KaTeX_Main"
     font-size="48"
     font-weight="normal"
     text-anchor="end"
     fill="black"
     stroke-width="0px">2</text>
  <text
     id="text30"
     x="100"
     y="262"
     font-style=""
     font-family="KaTeX_Main"
     font-size="48"
     font-weight="normal"
     text-anchor="end"
     fill="black"
     stroke-width="0px">3</text>
  <text
     id="text32"
     x="100"
     y="184"
     font-style=""
     font-family="KaTeX_Main"
     font-size="48"
     font-weight="normal"
     text-anchor="end"
     fill="black"
     stroke-width="0px">4</text>
  <text
     id="text34"
     x="100"
     y="106"
     font-style=""
     font-family="KaTeX_Main"
     font-size="48"
     font-weight="normal"
     text-anchor="end"
     fill="black"
     stroke-width="0px">5</text>
  <text
     id="text36"
     x="100"
     y="574"
     font-style=""
     font-family="KaTeX_Main"
     font-size="48"
     font-weight="normal"
     text-anchor="end"
     fill="black"
     stroke-width="0px">-1</text>
  <text
     id="text38"
     x="118"
     y="36.120000000000005"
     font-style="italic"
     font-family="KaTeX_Main"
     font-size="48"
     font-weight="normal"
     text-anchor="middle"
     fill="black"
     stroke-width="0px">y</text>
  <text
     id="text40"
     x="561.88"
     y="496"
     font-style="italic"
     font-family="KaTeX_Main"
     font-size="48"
     font-weight="normal"
     text-anchor="start"
     fill="black"
     stroke-width="0px"
     style="-inkscape-font-specification:'KaTeX_Main, Italic';font-family:KaTeX_Main;font-weight:normal;font-style:italic;font-stretch:normal;font-variant:normal;font-size:48px;text-anchor:start;text-align:start;writing-mode:lr;font-variant-ligatures:normal;font-variant-caps:normal;font-variant-numeric:normal;font-feature-settings:normal;">
    <tspan
       sodipodi:role="line"
       id="tspan33">t</tspan>
  </text>
  <path
     id="path42"
     d="M40,464.4 40.77999921999999,464.71043969112 41.55999843999999,465.01775938848004 42.339997659999995,465.32195909207996 43.11999687999999,465.62303880191996 43.89999609999998,465.9209985179999 44.679995319999975,466.21583824031995 45.45999453999998,466.50755796887995 46.239993759999976,466.7961577036799 47.01999297999997,467.08163744471983 47.79999219999996,467.36399719199983 48.57999141999997,467.6432369455198 49.359990639999964,467.9193567052797 50.13998985999996,468.1923564712797 50.91998907999995,468.46223624351967 51.69998829999996,468.7289960219996 52.47998751999995,468.9926358067196 53.259986739999945,469.25315559767955 54.03998595999994,469.5105553948795 54.81998517999994,469.76483519831936 55.59998439999993,470.0159950079993 56.37998361999993,470.26403482391925 57.15998283999993,470.50895464607925 57.93998205999993,470.7507544744792 58.71998127999992,470.98943430911913 59.49998049999992,471.224994149999 60.279979719999915,471.45743399711887 61.059978939999915,471.6867538504788 61.83997815999991,471.9129537100788 62.61997737999991,472.13603357591865 63.3999765999999,472.35599344799857 64.1799758199999,472.57283332631846 64.9599750399999,472.7865532108784 65.73997425999988,472.99715310167824 66.51997347999989,473.2046329987181 67.29997269999988,473.4089929019981 68.07997191999988,473.6102328115179 68.85997113999989,473.8083527272778 69.63997035999988,474.00335264927776 70.41996957999987,474.1952325775176 71.19996879999988,474.38399251199746 71.97996801999986,474.5696324527173 72.75996723999987,474.75215239967724 73.53996645999986,474.93155235287713 74.31996567999985,475.107832312317 75.09996489999986,475.2809922779968 75.87996411999985,475.4510322499167 76.65996333999985,475.61795222807655 77.43996255999984,475.78175221247636 78.21996177999984,475.94243220311625 78.99996099999984,476.0999921999961 79.77996021999985,476.2544322031159 80.55995943999984,476.4057522124757 81.33995865999984,476.55395222807556 82.11995787999984,476.6990322499154 82.89995709999985,476.84099227799527 83.67995631999985,476.9798323123151 84.45995553999984,477.11555235287494 85.23995475999985,477.2481523996747 86.01995397999985,477.3776324527146 86.79995319999985,477.5039925119944 87.57995241999986,477.6272325775142 88.35995163999985,477.74735264927403 89.13995085999986,477.86435272727374 89.91995007999985,477.97823281151364 90.69994929999986,478.0889929019934 91.47994851999985,478.1966329987132 92.25994773999986,478.301153101673 93.03994695999987,478.4025532108727 93.81994617999986,478.50083332631255 94.59994539999985,478.5959934479923 95.37994461999986,478.6880335759121 96.15994383999987,478.7769537100719 96.93994305999986,478.8627538504717 97.71994227999987,478.9454339971114 98.49994149999986,479.02499414999124 99.27994071999987,479.101434309111 100.05993993999986,479.1747544744708 100.83993915999987,479.2449546460705 101.61993837999987,479.31203482391027 102.39993759999987,479.37599500799 103.17993681999987,479.4368351983097 103.95993603999987,479.4945553948695 104.73993525999987,479.54915559766926 105.51993447999988,479.60063580670896 106.29993369999988,479.64899602198875 107.07993291999988,479.6942362435085 107.85993213999988,479.7363564712682 108.63993135999988,479.7753567052679 109.41993057999989,479.81123694550763 110.19992979999988,479.84399719198734 110.97992901999987,479.87363744470713 111.75992823999988,479.90015770366676 112.53992745999987,479.9235579688665 113.31992667999988,479.94383824030626 114.09992589999987,479.9609985179859 114.87992511999988,479.9750388019056 115.65992433999988,479.9859590920653 116.43992355999988,479.99375938846504 117.21992277999988,479.99843969110475 117.99992199999988,479.9999999999844 118.77992121999988,479.99844031510406 119.55992043999989,479.9937606364638 120.33991965999988,479.98596096406345 121.11991887999989,479.9750412979031 121.89991809999988,479.9610016379828 122.67991731999987,479.9438419843025 123.45991653999988,479.9235623368621 124.23991575999987,479.90016269566183 125.01991497999988,479.8736430607015 125.79991419999988,479.84400343198115 126.57991341999988,479.81124380950075 127.35991263999988,479.77536419326043 128.13991185999987,479.73636458326007 128.91991107999988,479.6942449794998 129.69991029999989,479.64900538197935 130.4799095199999,479.600645790699 131.25990873999987,479.5491662056587 132.03990795999988,479.4945666268583 132.8199071799999,479.4368470542979 133.5999063999999,479.3760074879775 134.37990561999987,479.3120479278972 135.15990483999988,479.24496837405684 135.9399040599999,479.17476882645644 136.7199032799999,479.101449285096 137.4999024999999,479.02500974997565 138.27990171999988,478.94545022109526 139.0599009399999,478.8627706984548 139.8399001599999,478.77697118205447 140.6198993799999,478.6880516718941 141.3998985999999,478.59601216797364 142.1798978199999,478.5008526702933 142.9598970399999,478.4025731788528 143.7398962599999,478.30117369365246 144.5198954799999,478.196654214692 145.2998946999999,478.0890147419716 146.0798939199999,477.97825527549116 146.8598931399999,477.8643758152507 147.63989235999992,477.7473763612503 148.4198915799999,477.6272569134899 149.1998907999999,477.5040174719694 149.9798900199999,477.377658036689 150.7598892399999,477.2481786076486 151.5398884599999,477.1155791848481 152.3198876799999,476.9798597682877 153.09988689999992,476.8410203579672 153.87988611999992,476.6990609538867 154.6598853399999,476.5539815560463 155.4398845599999,476.4057821644459 156.21988377999992,476.25446277908543 156.99988299999993,476.1000233999649 157.77988221999993,475.9424640270845 158.5598814399999,475.7817846604439 159.33988065999992,475.61798530004353 160.1198798799999,475.451065945883 160.8998790999999,475.2810265979625 161.6798783199999,475.107867256282 162.4598775399999,474.9315879208416 163.2398767599999,474.75218859164113 164.01987597999988,474.5696692686806 164.7998751999999,474.3840299519601 165.5798744199999,474.1952706414796 166.35987363999988,474.0033913372391 167.13987285999988,473.8083920392386 167.9198720799999,473.6102727474781 168.69987129999987,473.4090334619575 169.47987051999988,473.2046741826771 170.25986973999989,472.9971949096365 171.03986895999986,472.786595642836 171.81986817999984,472.57287638227547 172.59986739999985,472.356037127955 173.37986661999986,472.1360778798744 174.15986583999984,471.91299863803386 174.93986505999985,471.6867994024334 175.71986427999985,471.4574801730728 176.49986349999983,471.22504094995224 177.27986271999984,470.98948173307167 178.05986193999985,470.7508025224312 178.83986115999983,470.50900331803064 179.61986037999984,470.26408411987006 180.39985959999984,470.01604492794957 181.17985881999982,469.7648857422689 181.95985803999983,469.51060656282834 182.73985725999984,469.25320738962785 183.51985647999982,468.9926882226672 184.2998556999998,468.7290490619466 185.0798549199998,468.46228990746613 185.8598541399998,468.1924107592255 186.6398533599998,467.9194116172249 187.4198525799998,467.6432924814643 188.1998517999998,467.36405335194377 188.97985101999978,467.0816942286632 189.7598502399998,466.7962151116226 190.5398494599998,466.50761600082194 191.31984867999978,466.21589689626137 192.09984789999976,465.92105779794076 192.8798471199998,465.6230987058601 193.65984633999977,465.32201962001955 194.43984555999975,465.01782054041894 195.21984477999976,464.7105014670583 195.99984399999977,464.4000623999377 196.77984321999975,464.0865033390571 197.55984243999978,463.7698242844165 198.33984165999976,463.4500252360158 199.11984087999977,463.1271061938552 199.89984009999978,462.80106715793454 200.6798393199998,462.47190812825386 201.4598385399998,462.13962910481325 202.2398377599998,461.8042300876126 203.0198369799998,461.4657110766519 203.7998361999998,461.1240720719313 204.57983541999982,460.7793130734507 205.3598346399998,460.43143408121 206.13983385999984,460.0804350952093 206.91983307999982,459.72631611544864 207.69983229999985,459.36907714192796 208.47983151999983,459.00871817464724 209.25983073999984,458.6452392136066 210.03982995999985,458.2786402588059 210.81982917999986,457.9089213102452 211.59982839999986,457.53608236792456 212.37982761999987,457.1601234318439 213.15982683999988,456.78104450200317 213.93982605999986,456.39884557840253 214.7198252799999,456.01352666104174 215.49982449999987,455.625087749921 216.2798237199999,455.2335288450404 217.0598229399999,454.8388499463997 217.83982215999993,454.441051053999 218.6198213799999,454.04013216783824 219.3998205999999,453.63609328791756 220.17981981999992,453.22893441423685 220.95981903999993,452.8186555467961 221.73981825999994,452.4052566855953 222.51981747999994,451.9887378306346 223.29981669999995,451.56909898191384 224.07981591999993,451.14634013943316 224.85981513999997,450.72046130319245 225.63981435999995,450.2914624731917 226.41981357999998,449.8593436494309 227.19981279999996,449.4241048319102 227.97981201999997,448.98574602062945 228.75981123999998,448.54426721558866 229.53981045999998,448.09966841678784 230.31980968,447.6519496242271 231.0998089,447.2011108379063 231.87980812,446.7471520578256 232.65980734000001,446.29007328398484 233.43980656000002,445.82987451638405 234.21980578,445.3665557550232 234.99980500000004,444.9001169999025 235.77980422000002,444.4305582510217 236.55980344000005,443.95787950838087 237.33980266000003,443.4820807719801 238.11980188000004,443.00316204181934 238.89980110000005,442.5211233178985 239.67980032000006,442.03596460021777 240.45979954000006,441.54768588877687 241.23979876000007,441.05628718357616 242.01979798000008,440.5617684846153 242.79979720000009,440.0641297918945 243.5797964200001,439.5633711054137 244.35979564000007,439.05949242517283 245.1397948600001,438.55249375117205 245.9197940800001,438.04237508341123 246.6997933000001,437.52913642189037 247.4797925200001,437.0127777666096 248.2597917400001,436.49329911756877 249.03979096000012,435.9707004747679 249.81979018000013,435.444981838207 250.59978940000013,434.9161432078862 251.37978862000014,434.38418458380534 252.15978784000015,433.84910596596444 252.93978706000016,433.3109073543636 253.71978628000016,432.76958874900276 254.49978550000017,432.22515014988187 255.27978472000018,431.67759155700105 256.05978394000016,431.1269129703602 256.83978316000014,430.5731143899593 257.6197823800002,430.0161958157985 258.3997816000002,429.4561572478775 259.1797808200002,428.89299868619673 259.95978004000017,428.3267201307558 260.7397792600002,427.75732158155495 261.51977848000024,427.18480303859405 262.2997777000002,426.6091645018731 263.0797769200002,426.03040597139227 263.85977614000024,425.4485274471514 264.63977536000027,424.86352892915045 265.41977458000025,424.2754104173895 266.19977380000023,423.6841719118686 266.97977302000027,423.08981341258766 267.75977224000025,422.4923349195468 268.5397714600002,421.8917364327459 269.31977068000026,421.288017952185 270.0997699000003,420.681179477864 270.8797691200003,420.07122100978313 271.65976834000026,419.4581425479422 272.4397675600003,418.84194409234124 273.2197667800003,418.22262564298035 273.9997660000003,417.6001871998593 274.7797652200003,416.97462876297845 275.5597644400003,416.34595033233745 276.33976366000024,415.7141519079365 277.1197628800003,415.07923348977556 277.89976210000026,414.4411950778547 278.67976132000024,413.80003667217375 279.4597605400002,413.1557582727328 280.2397597600002,412.5083598795318 281.01975898000023,411.85784149257086 281.79975820000016,411.2042031118499 282.5797574200002,410.547444737369 283.35975664000017,409.88756636912797 284.13975586000015,409.224568007127 284.9197550800002,408.5584496513661 285.6997543000001,407.8892113018451 286.47975352000014,407.2168529585641 287.2597527400001,406.5413746215231 288.0397519600001,405.8627762907222 288.8197511800001,405.18105796616123 289.59975040000006,404.49621964784023 290.3797496200001,403.8082613357592 291.15974884,403.11718302991824 291.93974806000006,402.42298473031724 292.71974728000004,401.7256664369562 293.4997465,401.02522814983524 294.27974572,400.32166986895425 295.05974494,399.6149915943132 295.83974416,398.90519332591214 296.61974337999993,398.19227506375114 297.39974259999997,397.4762368078301 298.17974181999995,396.75707855814915 298.9597410399999,396.03480031470815 299.73974025999996,395.3094020775071 300.5197394799999,394.58088384654604 301.2997386999999,393.84924562182505 302.0797379199999,393.114487403344 302.8597371399999,392.37660919110294 303.63973635999986,391.63561098510195 304.41973557999984,390.89149278534086 305.1997347999999,390.14425459181984 305.9797340199998,389.39389640453874 306.75973323999983,388.6404182234977 307.5397324599998,387.88382004869663 308.3197316799998,387.1241018801356 309.09973089999977,386.36126371781455 309.87973011999975,385.5953055617334 310.6597293399998,384.82622741189243 311.4397285599997,384.0540292682913 312.21972777999974,383.2787111309303 312.9997269999997,382.50027299980917 313.7797262199997,381.7187148749281 314.5597254399997,380.934036756287 315.33972465999966,380.1462386438859 316.1197238799997,379.3553205377248 316.8997230999996,378.56128243780375 317.67972231999966,377.76412434412265 318.45972153999963,376.96384625668156 319.2397207599996,376.16044817548044 320.01971997999965,375.35393010051934 320.7997191999996,374.54429203179825 321.5797184199996,373.7315339693171 322.3597176399996,372.915655913076 323.13971685999957,372.0966578630749 323.91971607999955,371.27453981931376 324.6997152999995,370.44930178179266 325.47971451999956,369.6209437505115 326.2597137399995,368.7894657254704 327.0397129599995,367.95486770666923 327.8197121799995,367.1171496941081 328.5997113999995,366.276311687787 329.37971061999946,365.4323536877058 330.15970983999944,364.5852756938647 330.9397090599995,363.73507770626355 331.7197082799994,362.8817597249024 332.49970749999943,362.02532174978126 333.2797067199994,361.1657637809001 334.0597059399994,360.3030858182589 334.8397051599994,359.4372878618578 335.61970437999935,358.5683699116966 336.3997035999994,357.69633196777545 337.17970281999936,356.82117403009426 337.95970203999934,355.9428960986531 338.7397012599993,355.0614981734519 339.5197004799993,354.17698025449073 340.29969969999934,353.28934234176955 341.07969891999926,352.39858443528834 341.8596981399993,351.50470653504715 342.6396973599993,350.607708641046 343.41969657999925,349.70759075328476 344.19969579999923,348.8043528717636 344.9796950199992,347.8979949964824 345.75969423999925,346.9885171274412 346.53969345999917,346.07591926464 347.3196926799992,345.1602014080788 348.0996918999992,344.24136355775755 348.87969111999917,343.31940571367636 349.6596903399992,342.39432787583513 350.4396895599991,341.46613004423386 351.21968877999916,340.5348122188727 351.99968799999914,339.60037439975144 352.7796872199991,338.66281658687024 353.5596864399991,337.722138780229 354.3396856599991,336.7783409798277 355.1196848799991,335.8314231856665 355.89968409999904,334.88138539774525 356.67968331999907,333.92822761606396 357.45968253999905,332.97194984062276 358.23968175999903,332.0125520714215 359.019680979999,331.0500343084602 359.799680199999,330.084396551739 360.579679419999,329.1156388012577 361.35967863999895,328.1437610570165 362.139677859999,327.16876331901517 362.91967707999896,326.1906455872539 363.69967629999894,325.20940786173264 364.4796755199989,324.2250501424514 365.2596747399989,323.2375724294101 366.03967395999894,322.2469747226088 366.81967317999886,321.2532570220475 367.5996723999989,320.25641932772623 368.3796716199989,319.25646163964495 369.15967083999885,318.25338395780363 369.9396700599989,317.24718628220234 370.7196692799988,316.23786861284105 371.49966849999885,315.22543094971974 372.2796677199988,314.20987329283844 373.0596669399988,313.1911956421971 373.8396661599988,312.16939799779584 374.61966537999876,311.1444803596345 375.39966459999874,310.1164427277132 376.1796638199988,309.0852851020319 376.95966303999876,308.05100748259053 377.73966225999874,307.0136098693892 378.5196614799987,305.9730922624279 379.2996606999987,304.9294546617066 380.0796599199987,303.8826970672252 380.8596591399987,302.8328194789839 381.6396583599987,301.7798218969825 382.41965757999867,300.72370432122113 383.19965679999865,299.6644667516998 383.97965601999863,298.60210918841847 384.7596552399986,297.5366316313771 385.5396544599986,296.46803408057576 386.3196536799986,295.3963165360144 387.0996528999986,294.321478997693 387.8796521199986,293.24352146561165 388.65965133999856,292.16244393977024 389.43965055999854,291.0782464201689 390.2196497799985,289.99092890680754 390.99964899999856,288.9004913996862 391.77964821999853,287.8069338988048 392.5596474399985,286.7102564041634 393.3396466599985,285.610458915762 394.1196458799985,284.50754143360064 394.89964509999845,283.4015039576792 395.6796443199985,282.29234648799775 396.45964353999847,281.1800690245564 397.23964275999845,280.064671567355 398.0196419799984,278.9461541163936 398.7996411999984,277.8245166716722 399.5796404199984,276.6997592331908 400.35963963999836,275.5718818009493 401.1396388599984,274.4408843749479 401.9196380799984,273.3067669551865 402.69963729999836,272.16952954166504 403.47963651999834,271.02917213438366 404.2596357399983,269.88569473334223 405.0396349599983,268.7390973385408 405.81963417999833,267.5893799499794 406.5996333999983,266.4365425676579 407.3796326199983,265.2805851915765 408.15963183999827,264.121507821735 408.93963105999825,262.9593104581336 409.7196302799982,261.7939931007721 410.4996294999982,260.6255557496507 411.27962871999824,259.4539984047692 412.0596279399982,258.27932106612775 412.8396271599982,257.10152373372625 413.6196263799982,255.92060640756483 414.39962559999816,254.73656908764337 415.17962481999814,253.54941177396188 415.9596240399982,252.3591344665204 416.73962325999815,251.1657371653189 417.51962247999813,249.9692198703574 418.2996216999981,248.76958258163592 419.0796209199981,247.5668252991544 419.85962013999807,246.36094802291296 420.63961935999805,245.1519507529115 421.4196185799981,243.93983348914998 422.19961779999807,242.72459623162842 422.97961701999805,241.50623898034695 423.759616239998,240.28476173530544 424.539615459998,239.06016449650394 425.319614679998,237.8324472639424 426.099613899998,236.60161003762096 426.879613119998,235.3676528175394 427.659612339998,234.13057560369782 428.43961155999796,232.89037839609637 429.21961077999794,231.64706119473482 429.9996099999979,230.4006239996133 430.77960921999795,229.15106681073178 431.55960843999793,227.89838962809023 432.3396076599979,226.64259245168864 433.1196068799979,225.38367528152713 433.89960609999787,224.12163811760558 434.67960531999785,222.85648095992406 435.4596045399978,221.5882038084825 436.23960375999786,220.31680666328094 437.01960297999784,219.04228952431936 437.7996021999978,217.7646523915978 438.5796014199978,216.4838952651163 439.3596006399978,215.20001814487466 440.13959985999776,213.9130210308731 440.9195990799978,212.6229039231115 441.6995982999978,211.3296668215899 442.47959751999775,210.0333097263084 443.25959673999773,208.7338326372668 444.0395959599977,207.43123555446522 444.8195951799977,206.12551847790365 445.5995943999977,204.81668140758205 446.3795936199977,203.5047243435004 447.1595928399977,202.18964728565885 447.93959205999766,200.87145023405725 448.71959127999764,199.5501331886956 449.4995904999976,198.225696149574 450.2795897199976,196.89813911669245 451.05958893999764,195.56746209005075 451.8395881599976,194.23366506964913 452.6195873799976,192.8967480554876 453.3995865999976,191.55671104756595 454.17958581999756,190.21355404588428 454.95958503999753,188.86727705044268 455.73958425999757,187.51788006124104 456.51958347999755,186.16536307827943 457.29958269999753,184.80972610155777 458.0795819199975,183.45096913107614 458.8595811399975,182.08909216683446 459.63958035999747,180.72409520883286 460.41957957999745,179.35597825707123 461.1995787999975,177.98474131154956 461.97957801999746,176.6103843722679 462.75957723999744,175.2329074392262 463.5395764599974,173.8523105124246 464.3195756799974,172.46859359186294 465.0995748999974,171.08175667754125 465.8795741199974,169.69179976945958 466.6595733399974,168.29872286761793 467.4395725599974,166.90252597201624 468.21957177999735,165.50320908265456 468.99957099999733,164.1007721995329 469.7795702199973,162.69521532265122 470.5595694399973,161.28653845200944 471.3395686599973,159.8747415876078 472.1195678799973,158.45982472944615 472.8995670999973,157.04178787752437 473.67956631999726,155.62063103184272 474.45956553999724,154.19635419240103 475.2395647599972,152.76895735919925 476.01956397999726,151.3384405322376 476.79956319999724,149.90480371151585 477.5795624199972,148.46804689703413 478.3595616399972,147.02817008879242 479.1395608599972,145.58517328679073 479.91956007999715,144.139056491029 480.6995592999972,142.68981970150725 481.47955851999717,141.23746291822556 482.25955773999715,139.78198614118378 483.0395569599971,138.32338937038213 483.8195561799971,136.86167260582033 484.5995553999971,135.39683584749855 485.37955461999707,133.92887909541685 486.1595538399971,132.4578023495751 486.9395530599971,130.98360560997332 487.71955227999706,129.50628887661162 488.49955149999704,128.02585214948982 489.279550719997,126.54229542860804 490.059549939997,125.05561871396634 490.83954915999703,123.56582200556454 491.619548379997,122.0729053034027 492.399547599997,120.576868607481 493.179546819997,119.07771191779926 493.95954603999695,117.57543523435743 494.73954525999693,116.07003855715567 495.51954447999697,114.56152188619382 496.29954369999695,113.0498852214721 497.0795429199969,111.53512856299028 497.8595421399969,110.01725191074848 498.6395413599969,108.49625526474671 499.41954057999686,106.9721386249849 500.19953979999684,105.4449019914631 500.9795390199969,103.91454536418132 501.75953823999686,102.38106874313945 502.53953745999684,100.84447212833766 503.3195366799968,99.30475551977582 504.0995358999968,97.76191891745407 504.8795351199968,96.21596232137222 505.6595343399968,94.66688573153039 506.4395335599968,93.11468914792857 507.21953277999677,91.55937257056678 507.99953199999675,90.00093599944489 "
     stroke-width="5"
     stroke="blue"
     fill="none" />
  <path
     d="M 40.68006835821522 472.3941370408665 L 23.331657560051703 457.7659996755639 L 45.9872686177641 459.0594630889079 L 40 464.4 z"
     stroke-width="1"
     stroke="blue"
     fill="blue"
     id="path44" />
  <path
     d="M 499.9765207411403 89.9977203715185 L 516.028974514706 73.95812910965843 L 512.8107662529694 96.42127438328588 L 507.99953199999675 90.00093599944489 z"
     stroke-width="1"
     stroke="blue"
     fill="blue"
     id="path46" />
  <circle
     style="fill:#000000;stroke-width:0.28259125"
     id="path53"
     cx="273.38528"
     cy="418.68091"
     inkscape:transform-center-x="21.50084"
     inkscape:transform-center-y="57.335574"
     r="10" />
  <circle
     style="display:inline;fill:#000000;stroke-width:0.28259125"
     id="path53-3"
     cx="352.5986"
     cy="338.66107"
     inkscape:transform-center-x="21.50084"
     inkscape:transform-center-y="57.335574"
     r="10" />
  <path
     style="fill:none;stroke:#000000;stroke-width:4;stroke-linecap:butt;stroke-linejoin:miter;stroke-opacity:1;stroke-miterlimit:4;stroke-dasharray:16,16;stroke-dashoffset:0"
     d="m 272.34397,417.93046 v -80.62815 h 80.62816"
     id="path70"
     inkscape:connector-curvature="0" />
  <g
     aria-label="t"
     transform="translate(147.81828,136.17199)"
     style="font-style:normal;font-weight:normal;font-size:40px;line-height:1.25;font-family:sans-serif;letter-spacing:0px;word-spacing:0px;fill:#000000;fill-opacity:1;stroke:none"
     id="flowRoot4570">
    <path
       d="m 173.95508,156.47461 v 6.21094 h 7.40234 v 2.79297 h -7.40234 v 11.875 q 0,2.67578 0.72265,3.4375 0.74219,0.76171 2.98829,0.76171 h 3.6914 v 3.00782 h -3.6914 q -4.16016,0 -5.74219,-1.54297 -1.58203,-1.5625 -1.58203,-5.66406 v -11.875 h -2.63672 v -2.79297 h 2.63672 v -6.21094 z"
       id="path4594"
       inkscape:connector-curvature="0" />
  </g>
  <path
     sodipodi:type="star"
     style="fill:none;stroke:#000000;stroke-width:12.17433295;stroke-miterlimit:4;stroke-dasharray:none;stroke-dashoffset:0;stroke-opacity:1"
     id="path4592"
     sodipodi:sides="3"
     sodipodi:cx="225.75882"
     sodipodi:cy="59.58313"
     sodipodi:r1="63.055386"
     sodipodi:r2="31.527693"
     sodipodi:arg1="0.52359878"
     sodipodi:arg2="1.5707963"
     inkscape:flatsided="true"
     inkscape:rounded="0"
     inkscape:randomized="0"
     d="m 280.36639,91.110823 -109.21514,-10e-7 54.60757,-94.5830777 z"
     inkscape:transform-center-y="-4.4343703"
     transform="matrix(0.21586489,0,0,0.28130027,250.96596,294.11285)"
     inkscape:transform-center-x="5.8105958e-06" />
</svg>
